<svg xmlns="http://www.w3.org/2000/svg" xmlns:xlink="http://www.w3.org/1999/xlink" width="940" height="494.2"><rect width="940" height="494.2" rx="5" ry="5" class="a"/><svg y="0%" x="0%"><circle cx="20" cy="20" r="6" fill="#ff5f58"/><circle cx="40" cy="20" r="6" fill="#ffbd2e"/><circle cx="60" cy="20" r="6" fill="#18c132"/></svg><svg height="434.2" viewBox="0 0 90 43.42" width="900" x="15" xmlns="http://www.w3.org/2000/svg" xmlns:xlink="http://www.w3.org/1999/xlink" y="50"><style>@keyframes o{0%{transform:translateX(-90px)}5.3%{transform:translateX(-180px)}10.5%{transform:translateX(-270px)}15.8%{transform:translateX(-360px)}21.1%{transform:translateX(-450px)}26.3%{transform:translateX(-540px)}31.6%{transform:translateX(-630px)}36.8%{transform:translateX(-720px)}42.1%{transform:translateX(-810px)}47.4%{transform:translateX(-900px)}52.6%{transform:translateX(-990px)}57.9%{transform:translateX(-1080px)}63.2%{transform:translateX(-1170px)}68.4%{transform:translateX(-1260px)}73.7%{transform:translateX(-1350px)}78.9%{transform:translateX(-1440px)}84.2%{transform:translateX(-1530px)}89.5%{transform:translateX(-1620px)}94.7%{transform:translateX(-1710px)}to{transform:translateX(-1800px)}}.a{fill:#282d35}.f,.g,.h{fill:#b9c0cb;white-space:pre}.g,.h{fill:#a8cc8c}.h{fill:#b9c0cb;font-weight:700}.i,.j,.k,.l{fill:#b9bfca;white-space:pre}.j,.k,.l{fill:#dbab79}.k,.l{fill:#66c2cd}.l{fill:#71bef2}</style><g font-family="Monaco,Consolas,Menlo,'Bitstream Vera Sans Mono','Powerline Symbols',monospace" font-size="1.67"><defs><symbol id="1"><text y="1.67" class="f">────────────────────────────────────────────────────────────────────────────────────────</text></symbol><symbol id="2"><text y="1.67" class="g">●</text><text x="2.004" y="1.67" class="h">crosscheck</text><text x="14.028" y="1.67" class="f">cross-vendor</text><text x="27.054" y="1.67" class="f">·</text><text x="29.058" y="1.67" class="f">thorough</text></symbol><symbol id="3"><text x="39.078" y="1.67" class="f">workflow:</text><text x="49.098" y="1.67" class="f">review</text><text x="56.112" y="1.67" class="f">→</text><text x="58.116" y="1.67" class="f">fix</text><text x="62.124" y="1.67" class="f">→</text><text x="64.128" y="1.67" class="f">recheck</text></symbol><symbol id="4"><text x="73.146" y="1.67" class="f">vendors:</text><text x="83.166" y="1.67" class="f">claude</text></symbol><symbol id="5"><text y="1.67" class="f">·</text><text x="2.004" y="1.67" class="f">codex</text></symbol><symbol id="6"><text x="7.014" y="1.67" class="f">───────────────────────────────────────────────────────────────────────────────────</text></symbol><symbol id="7"><text y="1.67" class="f">─────</text></symbol><symbol id="8"><text x="7.014" y="1.67" class="f">PRs:</text><text x="12.024" y="1.67" class="f">4</text><text x="14.028" y="1.67" class="f">·</text><text x="16.032" y="1.67" class="f">CRs:</text><text x="21.042" y="1.67" class="f">3</text><text x="23.046" y="1.67" class="f">·</text><text x="25.05" y="1.67" class="f">fixes:</text><text x="32.064" y="1.67" class="f">2</text><text x="35.07" y="1.67" class="f">│</text><text x="38.076" y="1.67" class="f">avg</text><text x="42.084" y="1.67" class="f">CR:</text><text x="46.092" y="1.67" class="i">1m34s</text><text x="53.106" y="1.67" class="f">│</text><text x="56.112" y="1.67" class="f">↑</text><text x="58.116" y="1.67" class="f">18:42</text></symbol><symbol id="9"><text x="65.13" y="1.67" class="f">tunnel:</text><text x="75.15" y="1.67" class="f">e3f9a1.smee.io</text></symbol><symbol id="10"><text y="1.67" class="g">✓</text></symbol><symbol id="11"><text x="3.006" y="1.67" class="f">10:17</text><text x="9.018" y="1.67" class="f">PM</text><text x="13.026" y="1.67" class="f">PR</text><text x="16.032" y="1.67" class="f">#111</text><text x="21.042" y="1.67" class="f">opened</text><text x="29.058" y="1.67" class="f">feat/login</text><text x="43.086" y="1.67" class="f">origin=</text><text x="50.1" y="1.67" class="j">claude</text><text x="58.116" y="1.67" class="f">via=body</text><text x="68.136" y="1.67" class="f">reviewer=</text><text x="77.154" y="1.67" class="k">codex</text></symbol><symbol id="12"><text x="84.168" y="1.67" class="f">10:22</text></symbol><symbol id="13"><text y="1.67" class="f">PM</text><text x="4.008" y="1.67" class="f">PR</text><text x="7.014" y="1.67" class="f">#112</text><text x="12.024" y="1.67" class="f">opened</text><text x="20.04" y="1.67" class="f">fix/null-ptr</text><text x="34.068" y="1.67" class="f">origin=</text><text x="41.082" y="1.67" class="j">codex</text><text x="49.098" y="1.67" class="f">via=commits</text><text x="62.124" y="1.67" class="f">reviewer=</text><text x="71.142" y="1.67" class="k">claude</text></symbol><symbol id="14"><text x="77.154" y="1.67" class="f">─────────────</text></symbol><symbol id="15"><text y="1.67" class="f">───────────────────────────────────────────────────────────────────────────</text></symbol><symbol id="16"><text x="77.154" y="1.67" class="g">✓</text><text x="79.158" y="1.67" class="f">#109</text><text x="85.17" y="1.67" class="f">org/r</text></symbol><symbol id="17"><text y="1.67" class="f">epo</text><text x="5.01" y="1.67" class="f">feat/auth</text><text x="18.036" y="1.67" class="f">CR:</text><text x="22.044" y="1.67" class="g">APPROVE</text><text x="31.062" y="1.67" class="f">(43s)</text><text x="38.076" y="1.67" class="f">→</text><text x="40.08" y="1.67" class="k">https://github.com/org/repo/pull/109</text></symbol><symbol id="18"><text x="78.156" y="1.67" class="g">✓</text><text x="80.16" y="1.67" class="f">#110</text><text x="86.172" y="1.67" class="f">org/</text></symbol><symbol id="19"><text y="1.67" class="f">repo</text><text x="6.012" y="1.67" class="f">fix/crash</text><text x="19.038" y="1.67" class="f">CR:</text><text x="23.046" y="1.67" class="j">NEEDS</text><text x="29.058" y="1.67" class="j">WORK</text><text x="34.068" y="1.67" class="f">·</text><text x="36.072" y="1.67" class="f">fix</text><text x="40.08" y="1.67" class="f">2</text><text x="43.086" y="1.67" class="f">(2m08s)</text><text x="52.104" y="1.67" class="f">→</text><text x="54.108" y="1.67" class="k">https://github.com/org/repo/pull/110</text></symbol><symbol id="20"><text x="2.004" y="1.67" class="g">⠋</text><text x="4.008" y="1.67" class="h">#111</text><text x="10.02" y="1.67" class="i">org/repo</text><text x="20.04" y="1.67" class="f">feat/login</text><text x="46.092" y="1.67" class="f">started</text><text x="54.108" y="1.67" class="f">10:17</text><text x="60.12" y="1.67" class="f">PM</text><text x="64.128" y="1.67" class="f">4m05s</text><text x="71.142" y="1.67" class="g">⠋</text><text x="73.146" y="1.67" class="f">rechecking…</text></symbol><symbol id="21"><text x="86.172" y="1.67" class="f">PR</text><text x="89.178" y="1.67" class="l">█</text></symbol><symbol id="22"><text y="1.67" class="l">█████████</text><text x="10.02" y="1.67" class="f">711loc</text><text x="17.034" y="1.67" class="f">|</text><text x="19.038" y="1.67" class="f">CR</text><text x="22.044" y="1.67" class="j">████████</text><text x="31.062" y="1.67" class="j">2</text><text x="33.066" y="1.67" class="j">issues</text><text x="40.08" y="1.67" class="j">(NEEDS</text><text x="47.094" y="1.67" class="j">WORK,</text><text x="53.106" y="1.67" class="j">3.2K)</text><text x="59.118" y="1.67" class="f">codex</text><text x="65.13" y="1.67" class="f">·</text><text x="67.134" y="1.67" class="f">thorough</text><text x="76.152" y="1.67" class="f">|</text><text x="78.156" y="1.67" class="f">Fix</text><text x="82.164" y="1.67" class="k">███</text><text x="85.17" y="1.67" class="f">░░░</text><text x="89.178" y="1.67" class="k">✓</text></symbol><symbol id="23"><text x="1.002" y="1.67" class="k">1</text><text x="3.006" y="1.67" class="k">applied</text><text x="11.022" y="1.67" class="f">(2K)</text><text x="16.032" y="1.67" class="f">|</text><text x="18.036" y="1.67" class="f">Recheck</text><text x="26.052" y="1.67" class="f">░░░░░</text></symbol><symbol id="24"><text x="33.066" y="1.67" class="g">⠋</text><text x="35.07" y="1.67" class="h">#112</text><text x="41.082" y="1.67" class="i">org/repo</text><text x="51.102" y="1.67" class="f">fix/null-ptr</text><text x="83.166" y="1.67" class="f">started</text></symbol><symbol id="25"><text x="1.002" y="1.67" class="f">10:22</text><text x="7.014" y="1.67" class="f">PM</text><text x="11.022" y="1.67" class="f">8s</text><text x="15.03" y="1.67" class="g">⠋</text><text x="17.034" y="1.67" class="f">reviewing…</text></symbol><symbol id="26"><text x="29.058" y="1.67" class="f">PR</text><text x="32.064" y="1.67" class="l">███</text><text x="35.07" y="1.67" class="f">░░░░░░░</text><text x="43.086" y="1.67" class="f">42loc</text><text x="49.098" y="1.67" class="f">|</text><text x="51.102" y="1.67" class="f">CR</text><text x="54.108" y="1.67" class="f">░░░░░░░░</text><text x="63.126" y="1.67" class="f">queued</text><text x="70.14" y="1.67" class="f">|</text><text x="72.144" y="1.67" class="f">Fix</text><text x="76.152" y="1.67" class="f">░░░░░░</text><text x="83.166" y="1.67" class="f">queued</text></symbol><symbol id="27"><text x="89.178" y="1.67" class="f">─</text></symbol><symbol id="28"><text y="1.67" class="f">───────────────────────────────────────────────────────────────────────────────────────</text></symbol><symbol id="a"><path fill="transparent" d="M0 0h90v20H0z"/></symbol><symbol id="b"><path fill="#6f7683" d="M0 0h1.102v2.171H0z"/></symbol></defs><path class="a" d="M0 0h90v43.42H0z"/><g style="animation-duration:.9500000000000003s;animation-iteration-count:infinite;animation-name:o;animation-timing-function:steps(1,end)"><svg width="1890"><svg><use xlink:href="#a"/><use xlink:href="#b" x="-.004"/></svg><svg x="90"><use xlink:href="#a"/><use xlink:href="#b" x="87.996" y="2.146"/><use xlink:href="#1"/></svg><svg x="180"><use xlink:href="#a"/><use xlink:href="#b" x="36.996" y="6.488"/><use xlink:href="#1"/><use xlink:href="#2" y="4.342"/></svg><svg x="270"><use xlink:href="#a"/><use xlink:href="#b" x="70.996" y="8.659"/><use xlink:href="#1"/><use xlink:href="#2" y="4.342"/><use xlink:href="#3" y="6.513"/></svg><svg x="360"><use xlink:href="#a"/><use xlink:href="#b" x="6.996" y="13.001"/><use xlink:href="#1"/><use xlink:href="#2" y="4.342"/><use xlink:href="#3" y="6.513"/><use xlink:href="#4" y="8.684"/><use xlink:href="#5" y="10.855"/></svg><svg x="450"><use xlink:href="#a"/><use xlink:href="#b" x="4.996" y="17.343"/><use xlink:href="#1"/><use xlink:href="#2" y="4.342"/><use xlink:href="#3" y="6.513"/><use xlink:href="#4" y="8.684"/><use xlink:href="#5" y="10.855"/><use xlink:href="#6" y="13.026"/><use xlink:href="#7" y="15.197"/></svg><svg x="540"><use xlink:href="#a"/><use xlink:href="#b" x="62.996" y="19.514"/><use xlink:href="#1"/><use xlink:href="#2" y="4.342"/><use xlink:href="#3" y="6.513"/><use xlink:href="#4" y="8.684"/><use xlink:href="#5" y="10.855"/><use xlink:href="#6" y="13.026"/><use xlink:href="#7" y="15.197"/><use xlink:href="#8" y="17.368"/></svg><svg x="630"><use xlink:href="#a"/><use xlink:href="#b" x=".996" y="23.856"/><use xlink:href="#1"/><use xlink:href="#2" y="4.342"/><use xlink:href="#3" y="6.513"/><use xlink:href="#4" y="8.684"/><use xlink:href="#5" y="10.855"/><use xlink:href="#6" y="13.026"/><use xlink:href="#7" y="15.197"/><use xlink:href="#8" y="17.368"/><use xlink:href="#9" y="19.539"/><use xlink:href="#10" y="21.71"/></svg><svg x="720"><use xlink:href="#a"/><use xlink:href="#b" x="81.996" y="26.027"/><use xlink:href="#1"/><use xlink:href="#2" y="4.342"/><use xlink:href="#3" y="6.513"/><use xlink:href="#4" y="8.684"/><use xlink:href="#5" y="10.855"/><use xlink:href="#6" y="13.026"/><use xlink:href="#7" y="15.197"/><use xlink:href="#8" y="17.368"/><use xlink:href="#9" y="19.539"/><use xlink:href="#10" y="21.71"/><use xlink:href="#11" y="23.881"/></svg><svg x="810"><use xlink:href="#a"/><use xlink:href="#b" x="76.996" y="30.369"/><use xlink:href="#1"/><use xlink:href="#2" y="4.342"/><use xlink:href="#3" y="6.513"/><use xlink:href="#4" y="8.684"/><use xlink:href="#5" y="10.855"/><use xlink:href="#6" y="13.026"/><use xlink:href="#7" y="15.197"/><use xlink:href="#8" y="17.368"/><use xlink:href="#9" y="19.539"/><use xlink:href="#10" y="21.71"/><use xlink:href="#11" y="23.881"/><use xlink:href="#12" y="26.052"/><use xlink:href="#13" y="28.223"/></svg><svg x="900"><use xlink:href="#a"/><use xlink:href="#b" x="74.996" y="34.711"/><use xlink:href="#1"/><use xlink:href="#2" y="4.342"/><use xlink:href="#3" y="6.513"/><use xlink:href="#4" y="8.684"/><use xlink:href="#5" y="10.855"/><use xlink:href="#6" y="13.026"/><use xlink:href="#7" y="15.197"/><use xlink:href="#8" y="17.368"/><use xlink:href="#9" y="19.539"/><use xlink:href="#10" y="21.71"/><use xlink:href="#11" y="23.881"/><use xlink:href="#12" y="26.052"/><use xlink:href="#13" y="28.223"/><use xlink:href="#14" y="30.394"/><use xlink:href="#15" y="32.565"/></svg><svg x="990"><use xlink:href="#a"/><use xlink:href="#b" x="75.996" y="39.053"/><use xlink:href="#1"/><use xlink:href="#2" y="4.342"/><use xlink:href="#3" y="6.513"/><use xlink:href="#4" y="8.684"/><use xlink:href="#5" y="10.855"/><use xlink:href="#6" y="13.026"/><use xlink:href="#7" y="15.197"/><use xlink:href="#8" y="17.368"/><use xlink:href="#9" y="19.539"/><use xlink:href="#10" y="21.71"/><use xlink:href="#11" y="23.881"/><use xlink:href="#12" y="26.052"/><use xlink:href="#13" y="28.223"/><use xlink:href="#14" y="30.394"/><use xlink:href="#15" y="32.565"/><use xlink:href="#16" y="34.736"/><use xlink:href="#17" y="36.907"/></svg><svg x="1080"><use xlink:href="#a"/><use xlink:href="#b" x="89.996" y="41.224"/><use xlink:href="#2" y="2.171"/><use xlink:href="#3" y="4.342"/><use xlink:href="#4" y="6.513"/><use xlink:href="#5" y="8.684"/><use xlink:href="#6" y="10.855"/><use xlink:href="#7" y="13.026"/><use xlink:href="#8" y="15.197"/><use xlink:href="#9" y="17.368"/><use xlink:href="#10" y="19.539"/><use xlink:href="#11" y="21.71"/><use xlink:href="#12" y="23.881"/><use xlink:href="#13" y="26.052"/><use xlink:href="#14" y="28.223"/><use xlink:href="#15" y="30.394"/><use xlink:href="#16" y="32.565"/><use xlink:href="#17" y="34.736"/><use xlink:href="#18" y="36.907"/><use xlink:href="#19" y="39.078"/></svg><svg x="1170"><use xlink:href="#a"/><use xlink:href="#b" x="89.996" y="41.224"/><use xlink:href="#2"/><use xlink:href="#3" y="2.171"/><use xlink:href="#4" y="4.342"/><use xlink:href="#5" y="6.513"/><use xlink:href="#6" y="8.684"/><use xlink:href="#7" y="10.855"/><use xlink:href="#8" y="13.026"/><use xlink:href="#9" y="15.197"/><use xlink:href="#10" y="17.368"/><use xlink:href="#11" y="19.539"/><use xlink:href="#12" y="21.71"/><use xlink:href="#13" y="23.881"/><use xlink:href="#14" y="26.052"/><use xlink:href="#15" y="28.223"/><use xlink:href="#16" y="30.394"/><use xlink:href="#17" y="32.565"/><use xlink:href="#18" y="34.736"/><use xlink:href="#19" y="36.907"/></svg><svg x="1260"><use xlink:href="#a"/><use xlink:href="#b" x="83.996" y="41.224"/><use xlink:href="#4"/><use xlink:href="#5" y="2.171"/><use xlink:href="#6" y="4.342"/><use xlink:href="#7" y="6.513"/><use xlink:href="#8" y="8.684"/><use xlink:href="#9" y="10.855"/><use xlink:href="#10" y="13.026"/><use xlink:href="#11" y="15.197"/><use xlink:href="#12" y="17.368"/><use xlink:href="#13" y="19.539"/><use xlink:href="#14" y="21.71"/><use xlink:href="#15" y="23.881"/><use xlink:href="#16" y="26.052"/><use xlink:href="#17" y="28.223"/><use xlink:href="#18" y="30.394"/><use xlink:href="#19" y="32.565"/><use xlink:href="#20" y="39.078"/></svg><svg x="1350"><use xlink:href="#a"/><use xlink:href="#b" x="30.996" y="41.224"/><use xlink:href="#7"/><use xlink:href="#8" y="2.171"/><use xlink:href="#9" y="4.342"/><use xlink:href="#10" y="6.513"/><use xlink:href="#11" y="8.684"/><use xlink:href="#12" y="10.855"/><use xlink:href="#13" y="13.026"/><use xlink:href="#14" y="15.197"/><use xlink:href="#15" y="17.368"/><use xlink:href="#16" y="19.539"/><use xlink:href="#17" y="21.71"/><use xlink:href="#18" y="23.881"/><use xlink:href="#19" y="26.052"/><use xlink:href="#20" y="32.565"/><use xlink:href="#21" y="34.736"/><use xlink:href="#22" y="36.907"/><use xlink:href="#23" y="39.078"/></svg><svg x="1440"><use xlink:href="#a"/><use xlink:href="#b" x="30.996" y="41.224"/><use xlink:href="#8"/><use xlink:href="#9" y="2.171"/><use xlink:href="#10" y="4.342"/><use xlink:href="#11" y="6.513"/><use xlink:href="#12" y="8.684"/><use xlink:href="#13" y="10.855"/><use xlink:href="#14" y="13.026"/><use xlink:href="#15" y="15.197"/><use xlink:href="#16" y="17.368"/><use xlink:href="#17" y="19.539"/><use xlink:href="#18" y="21.71"/><use xlink:href="#19" y="23.881"/><use xlink:href="#20" y="30.394"/><use xlink:href="#21" y="32.565"/><use xlink:href="#22" y="34.736"/><use xlink:href="#23" y="36.907"/></svg><svg x="1530"><use xlink:href="#a"/><use xlink:href="#b" x="26.996" y="41.224"/><use xlink:href="#10"/><use xlink:href="#11" y="2.171"/><use xlink:href="#12" y="4.342"/><use xlink:href="#13" y="6.513"/><use xlink:href="#14" y="8.684"/><use xlink:href="#15" y="10.855"/><use xlink:href="#16" y="13.026"/><use xlink:href="#17" y="15.197"/><use xlink:href="#18" y="17.368"/><use xlink:href="#19" y="19.539"/><use xlink:href="#20" y="26.052"/><use xlink:href="#21" y="28.223"/><use xlink:href="#22" y="30.394"/><use xlink:href="#23" y="32.565"/><use xlink:href="#24" y="36.907"/><use xlink:href="#25" y="39.078"/></svg><svg x="1620"><use xlink:href="#a"/><use xlink:href="#b" x="88.996" y="41.224"/><use xlink:href="#11"/><use xlink:href="#12" y="2.171"/><use xlink:href="#13" y="4.342"/><use xlink:href="#14" y="6.513"/><use xlink:href="#15" y="8.684"/><use xlink:href="#16" y="10.855"/><use xlink:href="#17" y="13.026"/><use xlink:href="#18" y="15.197"/><use xlink:href="#19" y="17.368"/><use xlink:href="#20" y="23.881"/><use xlink:href="#21" y="26.052"/><use xlink:href="#22" y="28.223"/><use xlink:href="#23" y="30.394"/><use xlink:href="#24" y="34.736"/><use xlink:href="#25" y="36.907"/><use xlink:href="#26" y="39.078"/></svg><svg x="1710"><use xlink:href="#a"/><use xlink:href="#b" x="86.996" y="41.224"/><use xlink:href="#13"/><use xlink:href="#14" y="2.171"/><use xlink:href="#15" y="4.342"/><use xlink:href="#16" y="6.513"/><use xlink:href="#17" y="8.684"/><use xlink:href="#18" y="10.855"/><use xlink:href="#19" y="13.026"/><use xlink:href="#20" y="19.539"/><use xlink:href="#21" y="21.71"/><use xlink:href="#22" y="23.881"/><use xlink:href="#23" y="26.052"/><use xlink:href="#24" y="30.394"/><use xlink:href="#25" y="32.565"/><use xlink:href="#26" y="34.736"/><use xlink:href="#27" y="36.907"/><use xlink:href="#28" y="39.078"/></svg><svg x="1800"><use xlink:href="#a"/><use xlink:href="#b" x="86.996" y="41.224"/><use xlink:href="#14"/><use xlink:href="#15" y="2.171"/><use xlink:href="#16" y="4.342"/><use xlink:href="#17" y="6.513"/><use xlink:href="#18" y="8.684"/><use xlink:href="#19" y="10.855"/><use xlink:href="#20" y="17.368"/><use xlink:href="#21" y="19.539"/><use xlink:href="#22" y="21.71"/><use xlink:href="#23" y="23.881"/><use xlink:href="#24" y="28.223"/><use xlink:href="#25" y="30.394"/><use xlink:href="#26" y="32.565"/><use xlink:href="#27" y="34.736"/><use xlink:href="#28" y="36.907"/></svg></svg></g></g></svg></svg>